<svg version="1.2" xmlns="http://www.w3.org/2000/svg" viewBox="0 0 1308 1039" width="1308" height="1039">
	<title>doom1-ai</title>
	<defs>
		<linearGradient id="g1" x2="1" gradientUnits="userSpaceOnUse" gradientTransform="matrix(1306.586,0,0,939.853,2.755,1.616)">
			<stop offset=".012" stop-color="#31e5f0"/>
			<stop offset=".478" stop-color="#8851ff"/>
			<stop offset="1" stop-color="#49006a"/>
		</linearGradient>
		<linearGradient id="g2" x2="1" gradientUnits="userSpaceOnUse" gradientTransform="matrix(37.304,0,0,15.028,632.268,791.076)">
			<stop offset=".012" stop-color="#31d8d9"/>
			<stop offset=".478" stop-color="#887aff"/>
			<stop offset="1" stop-color="#7727d9"/>
		</linearGradient>
		<linearGradient id="g3" x2="1" gradientUnits="userSpaceOnUse" gradientTransform="matrix(41.057,218.299,-194.113,36.509,431.262,561.281)">
			<stop offset=".012" stop-color="#31e5f0"/>
			<stop offset=".478" stop-color="#8851ff"/>
			<stop offset="1" stop-color="#49006a"/>
		</linearGradient>
		<linearGradient id="g4" x2="1" gradientUnits="userSpaceOnUse" gradientTransform="matrix(99.817,0,0,58.831,299.88,459.172)">
			<stop offset=".012" stop-color="#31e5f0"/>
			<stop offset=".478" stop-color="#8851ff"/>
			<stop offset="1" stop-color="#49006a"/>
		</linearGradient>
		<linearGradient id="g5" x2="1" gradientUnits="userSpaceOnUse" gradientTransform="matrix(88.107,0,0,64.183,57.054,450.709)">
			<stop offset=".012" stop-color="#31e5f0"/>
			<stop offset=".478" stop-color="#8851ff"/>
			<stop offset="1" stop-color="#49006a"/>
		</linearGradient>
		<linearGradient id="g6" x2="1" gradientUnits="userSpaceOnUse" gradientTransform="matrix(.519,161.611,-38.489,.124,2011.529,640.869)">
			<stop offset="0" stop-color="#8851ff"/>
			<stop offset=".414" stop-color="#49006a"/>
			<stop offset="1" stop-color="#341d59"/>
		</linearGradient>
		<linearGradient id="g7" x2="1" gradientUnits="userSpaceOnUse" gradientTransform="matrix(-88.21,1.613,-5.728,-313.234,688.439,631.408)">
			<stop offset=".012" stop-color="#59326a"/>
			<stop offset="1" stop-color="#26003f"/>
		</linearGradient>
		<linearGradient id="g8" x2="1" gradientUnits="userSpaceOnUse" gradientTransform="matrix(.374,108.208,-66.859,.231,782.306,707.94)">
			<stop offset="0" stop-color="#2f1760"/>
			<stop offset="1" stop-color="#4b1760"/>
		</linearGradient>
		<linearGradient id="g9" x2="1" gradientUnits="userSpaceOnUse" gradientTransform="matrix(5.68,-147.299,104.649,4.036,482.197,597.844)">
			<stop offset="0" stop-color="#4976e8"/>
			<stop offset="1" stop-color="#49c7e8"/>
		</linearGradient>
		<linearGradient id="g10" x2="1" gradientUnits="userSpaceOnUse" gradientTransform="matrix(120.367,33.307,-36.77,132.884,628.344,294.804)">
			<stop offset=".012" stop-color="#4f1670"/>
			<stop offset=".355" stop-color="#331670"/>
			<stop offset="1" stop-color="#7727d9"/>
		</linearGradient>
		<linearGradient id="g11" x2="1" gradientUnits="userSpaceOnUse" gradientTransform="matrix(24.657,0,0,81.828,605.071,477.974)">
			<stop offset="0" stop-color="#4976e8"/>
			<stop offset="1" stop-color="#3d4f6b"/>
		</linearGradient>
		<linearGradient id="g12" x2="1" gradientUnits="userSpaceOnUse" gradientTransform="matrix(105.424,12.733,-18.391,152.267,782.671,536.257)">
			<stop offset=".047" stop-color="#ae4fd6"/>
			<stop offset=".983" stop-color="#00d4b5"/>
		</linearGradient>
		<linearGradient id="g13" x2="1" gradientUnits="userSpaceOnUse" gradientTransform="matrix(.727,236.169,-76.396,.235,2131.725,656.652)">
			<stop offset="0" stop-color="#49546a"/>
			<stop offset=".502" stop-color="#341d59"/>
		</linearGradient>
		<linearGradient id="g14" x2="1" gradientUnits="userSpaceOnUse" gradientTransform="matrix(102.725,122.768,-158.005,132.21,997.159,235.384)">
			<stop offset=".007" stop-color="#e96f3b"/>
			<stop offset=".475" stop-color="#ca0060"/>
			<stop offset="1" stop-color="#7709d9"/>
		</linearGradient>
		<linearGradient id="g15" x2="1" gradientUnits="userSpaceOnUse" gradientTransform="matrix(101.782,0,0,381.147,893.917,598.862)">
			<stop offset=".012" stop-color="#59326a"/>
			<stop offset="1" stop-color="#26003f"/>
		</linearGradient>
		<linearGradient id="g16" x2="1" gradientUnits="userSpaceOnUse" gradientTransform="matrix(142.256,0,0,307.765,900.743,329.926)">
			<stop offset=".007" stop-color="#e96f3b"/>
			<stop offset=".475" stop-color="#ca0060"/>
			<stop offset="1" stop-color="#7709d9"/>
		</linearGradient>
		<linearGradient id="g17" x2="1" gradientUnits="userSpaceOnUse" gradientTransform="matrix(32.911,0,0,21.967,703.732,554.68)">
			<stop offset=".052" stop-color="#ea119a"/>
			<stop offset=".722" stop-color="#d19d88"/>
		</linearGradient>
		<linearGradient id="g18" x2="1" gradientUnits="userSpaceOnUse" gradientTransform="matrix(326.959,0,0,177.167,698.389,417.913)">
			<stop offset=".052" stop-color="#ea119a"/>
			<stop offset=".722" stop-color="#d19d88"/>
		</linearGradient>
		<linearGradient id="g19" x2="1" gradientUnits="userSpaceOnUse" gradientTransform="matrix(NaN,NaN,NaN,NaN,NaN,NaN)">
			<stop offset=".052" stop-color="#ea119a"/>
			<stop offset=".722" stop-color="#d19d88"/>
		</linearGradient>
		<linearGradient id="g20" x2="1" gradientUnits="userSpaceOnUse" gradientTransform="matrix(NaN,NaN,NaN,NaN,NaN,NaN)">
			<stop offset=".052" stop-color="#ea119a"/>
			<stop offset=".722" stop-color="#d19d88"/>
		</linearGradient>
		<linearGradient id="g21" x2="1" gradientUnits="userSpaceOnUse" gradientTransform="matrix(NaN,NaN,NaN,NaN,NaN,NaN)">
			<stop offset=".052" stop-color="#ea119a"/>
			<stop offset=".722" stop-color="#d19d88"/>
		</linearGradient>
		<linearGradient id="g22" x2="1" gradientUnits="userSpaceOnUse" gradientTransform="matrix(161.97,19.563,-28.255,233.937,690.223,531.284)">
			<stop offset=".047" stop-color="#45ffc7"/>
			<stop offset="1" stop-color="#7727d9"/>
		</linearGradient>
		<linearGradient id="g23" x2="1" gradientUnits="userSpaceOnUse" gradientTransform="matrix(133.714,0,0,253.5,685.807,567.85)">
			<stop offset=".012" stop-color="#31e5f0"/>
			<stop offset=".478" stop-color="#8851ff"/>
			<stop offset="1" stop-color="#49006a"/>
		</linearGradient>
	</defs>
	<style>
		.s0 { opacity: .6;fill: #c7c7e5;stroke: #6cffff;stroke-miterlimit:10 } 
		.s1 { fill: url(#g1) } 
		.s2 { fill: url(#g2) } 
		.s3 { opacity: .3;fill: #ad85f9;stroke: #ad85f9;stroke-miterlimit:10 } 
		.s4 { fill: url(#g3) } 
		.s5 { fill: url(#g4) } 
		.s6 { fill: url(#g5) } 
		.s7 { opacity: .2;fill: #f1ebf7 } 
		.s8 { opacity: .1;fill: #f1ebf7 } 
		.s9 { opacity: .2;fill: url(#g6) } 
		.s10 { fill: #d19d88 } 
		.s11 { fill: url(#g7) } 
		.s12 { fill: #522368 } 
		.s13 { fill: url(#g8) } 
		.s14 { fill: #2f1760 } 
		.s15 { fill: url(#g9) } 
		.s16 { fill: none;stroke: #4eddc8;stroke-miterlimit:10 } 
		.s17 { fill: #c99b8d } 
		.s18 { fill: #ad7f74 } 
		.s19 { fill: url(#g10) } 
		.s20 { opacity: .5;fill: url(#g11) } 
		.s21 { opacity: .4;fill: #2b2672 } 
		.s22 { opacity: .1;fill: #0c0419 } 
		.s23 { opacity: .6;fill: url(#g12) } 
		.s24 { opacity: .1;fill: #341d59 } 
		.s25 { opacity: .1;fill: url(#g13) } 
		.s26 { fill: url(#g14) } 
		.s27 { fill: url(#g15) } 
		.s28 { opacity: .3;fill: #35204c } 
		.s29 { fill: url(#g16) } 
		.s30 { fill: #d9fcfb } 
		.s31 { fill: url(#g17) } 
		.s32 { fill: url(#g18) } 
		.s33 { fill: url(#g19) } 
		.s34 { fill: url(#g20) } 
		.s35 { opacity: .2;fill: #724e41 } 
		.s36 { fill: url(#g21) } 
		.s37 { fill: #00ffff } 
		.s38 { fill: #ff0062 } 
		.s39 { opacity: .4;fill: url(#g22);stroke: url(#g23);stroke-miterlimit:10 } 
	</style>
	<g id="Layer 8">
		<path id="&lt;Path&gt;" class="s0" d="m623.8 486.8l87.1 18.1v146.9l-87.1-27.2z"/>
		<path id="&lt;Path&gt;" class="s1" d="m1309.3 1.6v753.1c0 0-151.4 185.6-488 186.8-336.7 1.2-362.9-265.3-554.4-339.7-191.5-74.4-315-238.2-243.8-413.8 71.1-175.6 138.7-186.4 138.7-186.4z"/>
		<path id="&lt;Path&gt;" class="s2" d="m632.3 791.1c0 0 21.4 15.4 26.4 15 5-0.4 9.8-2.8 10.9-4.5"/>
		<path id="&lt;Path&gt;" class="s3" d="m901.7 547.7c0 0 19.3 10.2 32.3 14.2 13 3.9 13.9 4.3 31.8 4.8 17.9 0.4 19.6-1.9 21.9-4 2.3-2.1 0.8-6.8 0.8-6.8l-82.8-10.8z"/>
		<path id="&lt;Path&gt;" class="s4" d="m335.7 580.1c0 0 10.9-3.6 25.9-5.3 30.6-3.3 78 1.7 83.6 63.2 8.2 91.5 32.8 194-41.4 124.3-74.2-69.7-116.5-91-145.2-107.5-28.6-16.5-14.9-58.4 34.8-67.6"/>
		<path id="&lt;Path&gt;" class="s5" d="m314.7 486.8c0 0 31-43.2 59-21.6 28 21.6 34 61.6 15 51.1-19-10.5-24-4.4-57-4-33 0.5-37-4.8-27-15.2 10-10.3 10-10.3 10-10.3z"/>
		<path id="&lt;Path&gt;" class="s6" d="m64.8 470.9c0 0 14.2-22.4 37.7-20 23.5 2.3 42.3 13.4 42.7 25.2 0.3 11.7-7.8 15.4-17.9 14.4-10-1-11.7 0.2-28.5 14.4-16.8 14.2-32.4 10.8-38 4.8-5.5-6.1-5.5-25.4 4-38.8z"/>
		<path id="&lt;Path&gt;" class="s7" d="m19.1 201.4c0 0 121.2 102.5 181.4 65.1 60.2-37.4 104.3-63.7 133.7-42.1 29.4 21.6 143.1 41.6 179 15.9 35.8-25.6 93.4-26.1 138-10.9 44.7 15.2 113.7-12.4 119.2-55.9 5.5-43.4-26.7-171.6-100.5-171.6-73.7 0-533.4 0-533.4 0 0 0-35.8 14.2-70.5 82.5-34.8 68.3-46.9 117-46.9 117z"/>
		<path id="&lt;Path&gt;" class="s8" d="m470.9 49.1c0 0-81 23.8-62.7 73.1 18.4 49.2 70.2 89.4 145.6 77.4 75.4-12.1 174.3-23 219.6 2.1 45.4 25.2 181.2 84.6 267.1 71 85.8-13.6 182.3-49.1 230-41.6 47.7 7.5 47.7 7.5 47.7 7.5v-402.1z"/>
	</g>
	<g id="Layer 10">
	</g>
	<g id="Layer 21">
		<g id="Layer 39">
			<path id="&lt;Path&gt;" class="s9" d="m615.2 308c0 0-24.7-2.6-31.9 1.6-7.2 4.2-14.9 3.8-18 24.8-3.1 20.9-1.8 26 2 30.5 3.8 4.4 8.9 14.9 12.4 15.4 3.5 0.4 7.5-0.8 7.5-0.8l-11.8 33.3c0 0-26.6-9.8-35.4 2.3-8.7 12.1-33.4 73.7-33.4 73.7h2.4c0 0-16.8 26.4-14.6 38.8 2.2 12.4 11.3 45.7 17.8 55.7 6.4 10 23 33.2 23 33.2l1.9 4.9c0 0-12.1 24.8-7.2 54.8 4.9 30 14.7 81.2 14.7 81.2l9.5 1.7c0 0-9.1 33.4-8.4 44.8 0.6 11.4 12.1 53.6 12.1 53.6l-5.2 18.5c0.8-0.2 3.2 3.7 5 6.3 3.1 4.5 2.1 5 2.1 5l-0.7 3.2c0 0-6.2 5.8-5.6 10 0.7 4.2 15.4 21.1 15.4 21.1 0 0 6 10.2 20.5 21.1 26.1 19.7 96.1 88.7 42.3-1.8-17.1-28.8-19.4-18.4-21.9-21.2-3.4-3.8-15-5.8-18.2-11.8-2.9-5.2-3.9-5.5-3.9-5.5 0 0 23.2 24.5 28.4 22.3 5.3-2.2-2-22.9-8.3-29.6-6.3-6.8-27.1-18.2-27.1-18.2l2.6-39.3c0 0 14.7-20.8 23.3-35.3 8.7-14.6 18.5-29.3 19.2-40.5 0.6-11.2 0.8-14.1 0.8-14.1h3.1l8.6-141.1c0 0 9.2-0.3 10.5-25.2 1.3-25 1.1-87.3-2.6-113.1-3.7-25.9-1.1-41.7-7.9-45.5-6.9-3.8-22.5-7-22.5-7 0 0-4.7-10-1.5-15.4 3.1-5.5 2.6-5.5 2.6-5.5 0 0 15.3 4.5 20.6-0.1 5.3-4.7 4-5.3 4.9-11.5 0.8-6.2 0.2-7.3 0.2-7.3h-3.1c0 0 3.9-0.8 5-4.9 1.2-4.1-0.7-4.2 3.3-6.6 3.9-2.5 2.4-3.6-0.4-6.6-2.9-3-6.4-6.7-6.6-14.8-0.2-8.1-1.3-15.2-1.3-15.2 0 0 6.5 0.1 10.8-4.1 4.2-4.1 5.5-9.3 5.5-9.3 0 0-6.7-10.4-21.3-8.8"/>
		</g>
		<path id="&lt;Path&gt;" class="s10" d="m771.6 490.2c0 0 4.7-9.2 9.1-11.8 4.3-2.5 7.1-7.3 8.5-11.1 1.3-3.7 5.7-3 6.1-2.7 0.4 0.4 2.8 2 0.1 8.1-2.6 6.2-5.1 10-6.6 11.1-1.4 1.1 0.8 5.3 4.5 5.8 3.6 0.6 8.5 1.8 16.9-0.7 8.3-2.6 16.6-6 18.9-5.8 2.2 0.2 6.4 1.3 4.9 3.2-1.6 1.8-5.3 3.2-8 4.3-2.7 1.1-8.4 3.8-8.4 3.8 0 0 13.4-5.3 15.8-4.5 2.4 0.8 5.9 2.2 4 3.5-1.9 1.4-1.2 0.1-4.3 3.9-3.1 3.7-3.2 4.7-6.4 5.3-3.3 0.6-0.8 1.2-4.4 2.8-3.6 1.5-11.4 2-15.3 3.9-4 1.9-6.5 2-13.2 4.3-6.7 2.4-9 1.7-13.7 6.5-4.6 4.9-10.9 12-19.1 19.5-8.2 7.5-22.7 19.5-34.4 25.9-11.7 6.5-20.1 12.5-27.8 10.9-7.7-1.7-18.6-14.3-24.5-23.6-5.8-9.3-6.9-11-6.9-11l29.3-20.6 8 16c0 0 2 5.4 10.2 1.2 8.2-4.2 19-12.6 31.5-20.3 12.5-7.7 19.6-8.9 22-16.6 2.5-7.7 3.2-11.3 3.2-11.3z"/>
		<g id="Layer 25">
			<path id="&lt;Path&gt;" class="s11" d="m684.1 635.6c0 0 6.7 34.6 5.1 61.2-1.6 26.5-5.3 94.9-5.4 97.1-0.1 2.3-2.7 9.1-2.7 9.1 0 0-3 11.3-16.4 33.4-13.5 22.1-33.7 56.2-33.7 56.2 0 0-2.7 9.5 2.9 16.7 5.7 7.1 4.6 5.6 18.1 12.8 12.7 6.6 23 17.8 17.6 20.5-5.3 2.8-5.9 3.6-17.2 1.4-11.3-2.2-24.1-17.6-32.9-18.3-8.8-0.6-14.1-2.7-14.1-9.7 0-7 10.6-25.1 12.5-35.9 1.9-10.7 22-58.9 25.9-66.2 4-7.3 5-14.3 5-14.3l-27.9-167z"/>
			<path id="&lt;Path&gt;" class="s12" d="m615.9 625.1c0 0-16.9 22.3-18 47-1.2 24.8 14.4 119 14.4 119 0 0-12.8 37.2-6.7 66.4 6.1 29.2 13 64.2 13 64.2l-1.8 8.8c0 0-7.1 5-4.6 13.4 2.6 8.3 14.2 15.3 17 21 2.9 5.7 2.3 17.1 21.7 20.9 19.4 3.9 33.1-1.1 27.4-11.7-5.7-10.6-12-15.9-12-15.9 0 0-22.4-4.6-25-32.8-2.6-28.1 1.6-75.8 1.6-75.8 0 0 8.4-38.2 7.7-51.2-0.6-12.9 2.3-29.7 2.3-29.7l5.5-83.9c0 0-6.2-31.9-22.4-45-16.1-13-20.1-14.7-20.1-14.7z"/>
		</g>
		<g id="Layer 28">
			<path id="&lt;Path&gt;" class="s13" d="m602.8 789.3c0 0 16.9 3.7 37 3.4 20.2-0.4 20.2-0.4 20.2-0.4l0.7-12.7 27-0.5c0 0 7.5-104.5 8.3-130.7 0.9-26.1-0.5-28.8-0.5-28.8l-94.9 13.1c0 0-8 10.1-10.6 51.5-2.6 41.4 12.8 105.1 12.8 105.1z"/>
			<path id="&lt;Path&gt;" class="s14" d="m660.8 778.4l6.2-84.8c0 0 2.6-6.3 3.8-0.1 1.1 6.2-6.7 84.9-6.7 84.9l-3.4 1.2"/>
		</g>
		<g id="Layer 29">
			<path id="&lt;Path&gt;" class="s10" d="m631.2 430.1c0 0-27.2-10.2-38 11.9-10.7 22.1-19 46.3-29 73.3-10 27-14.7 17-10.5 40.4 4.1 23.4 8.5 36.3 14.6 47.4 6.1 11.1 20 31.6 22.8 36.3 2.9 4.7 2.8-2.1 4.1 11.4 1.3 13.5 1.4 15 1.4 15 0 0 1.9 1 11.4-1.3 9.5-2.4 10.5-3.5 10.5-3.5 0 0 1.2-4.4 3.7-5 2.5-0.6 0.7-0.3 7.7 4.6 6.9 5 7.9 6.5 10.2 6.3 2.3-0.2 4.2-1.4 4-3.2-0.3-1.9-4.7-2.3-8.6-8.3-3.8-5.9-5.8-11.3-11.6-16.3-5.9-5-7-1.5-12.5-6.8-5.5-5.3-10.7-32.3-17.4-48-6.6-15.7-8-17.8-4.3-22.5 3.7-4.7 15.5-44.8 19.8-52 4.4-7.2 12.9-22.8 13.5-31.5 0.7-8.7 8.7-18 9.2-24.7 0.5-6.6 0.5-20.8-0.2-21.8-0.6-1-0.6-1-0.6-1"/>
		</g>
		<g id="Layer 32">
			<path id="&lt;Path&gt;" class="s15" d="m633.6 427.8c0 0 7.4 5.5 18.1 5.4 10.7-0.2 22.1-2.3 22.1-2.3 0 0 9.4 0.9 15.6 3.4 6.3 2.5 10.3 8.2 10.8 20.5 0.5 12.3 6.8 45.3 7.5 57.3 0.7 12 0.9 68.4 0 81.7-1 13.3-2.2 39.3-11.4 37.3-9.3-2-33.5-1.5-52.2-1.6-18.8-0.2-33.5 1.9-33.5 1.9l-1.8-3-1.8-4.3-2.9-8.7c0 0 1.3-70 1.3-82.9 0-12.9 0.6-14.7 0.6-14.7 0 0-10.6-12.3-26-11.3-15.3 1-15.3 1-15.3 1 0 0 16.3-46.4 19-52 2.7-5.7 8.5-21.4 14.4-25.4 5.9-4 8.9-5.1 18.3-4.4 9.3 0.8 17.2 2.1 17.2 2.1z"/>
			<path id="&lt;Path&gt;" class="s16" d="m624.3 531c0 1.1-0.9 2-2 2-1.1 0-2-0.9-2-2 0-1.1 0.9-1.9 2-1.9 1.1 0 2 0.8 2 1.9z"/>
			<path id="&lt;Path&gt;" class="s16" d="m637.8 514.3c0 1.1-0.9 2-2 2-1.1 0-2-0.9-2-2 0-1.1 0.9-2 2-2 1.1 0 2 0.9 2 2z"/>
			<path id="&lt;Path&gt;" class="s16" d="m651.5 527.1c0 1.1-0.9 2-2 2-1.1 0-2-0.9-2-2 0-1.1 0.9-2 2-2 1.1 0 2 0.9 2 2z"/>
			<path id="&lt;Path&gt;" class="s16" d="m645.7 543.2c0 1.1-0.9 1.9-1.9 1.9-1.1 0-2-0.8-2-1.9 0-1.1 0.9-2 2-2 1 0 1.9 0.9 1.9 2z"/>
			<path id="&lt;Path&gt;" class="s16" d="m667.7 538.6c0 1.1-0.9 2-2 2-1.1 0-2-0.9-2-2 0-1.1 0.9-2 2-2 1.1 0 2 0.9 2 2z"/>
			<path id="&lt;Path&gt;" class="s16" d="m699.5 524.5c0 1-0.9 1.9-2 1.9-1.1 0-2-0.9-2-1.9 0-1.1 0.9-2 2-2 1.1 0 2 0.9 2 2z"/>
			<path id="&lt;Path&gt;" class="s16" d="m649.3 474.2c0 1.1-0.9 2-2 2-1.1 0-1.9-0.9-1.9-2 0-1.1 0.8-2 1.9-2 1.1 0 2 0.9 2 2z"/>
		</g>
		<g id="Layer 31">
		</g>
		<g id="Layer 24">
			<path id="&lt;Path&gt;" class="s17" d="m675.4 409c0 0-5 8.1-2.8 15.7 1.6 5.4 1.2 6.2 1.2 6.2l-18 3.4c0 0-10.8 0.2-21.1-3-1.3-0.4-1.1-0.8-1.1-0.8l11.7-37.6z"/>
		</g>
		<g id="Layer 22">
			<path id="&lt;Path&gt;" class="s10" d="m692.1 327c0 0 6.4 10.4 6.6 20.8 0.2 10.4-0.1 14.7 3.8 19.3 3.9 4.5 7.5 6.4 3.3 9.9-4.2 3.6-2.2 9-5.2 10.6-3.1 1.6-3.1 1.6-3.1 1.6l-0.7-0.5c0 0 2.6-1 3.8 0.4 1.2 1.4 0.8 2.7 0.1 4.9-0.8 2.2 0.1 8 0.2 9.9 0 2-0.9 4.3-7.3 5.3-6.4 1.1-5.8 1-15.2 0.3-9.4-0.7-4.5 0.5-12.9-2.2-8.4-2.6-19.9-11.9-20.2-14.4-0.3-2.6 1.4-10.3 1.4-10.3 0 0-4.4-3.7-4.8-9.4-0.3-5.7 0.9-9.7 4.3-10.1 3.5-0.5 8.2 4.7 8.2 4.7 0 0 13.5-12.9 17.4-17.2 3.9-4.3 20.3-23.6 20.3-23.6z"/>
			<path id="&lt;Path&gt;" class="s18" d="m647.6 382.6c0 0 0.1 0.3 0.2 0.8 0.8 2.5 3.4 10.5 8.1 15.6 5.8 6 19 10 19 10l1.1 0.3c0 0-6.3 10.2-9.1 10.3-3.7 0.2-15.6-12.6-16.6-22-1-9.1-2.7-15-2.7-15z"/>
		</g>
		<g id="Layer 23">
			<path id="&lt;Path&gt;" class="s19" d="m652.1 365.9c0 0 4.7 3.2 5.3 6.8 0.6 3.6 0.1 5.6 2.1 4.7 1.9-0.9 2.4-7 2.9-10.1 0.5-3.1 1.6-1.7 9.3-11.1 7.6-9.4 10.3-15 10.3-15 0 0-3.4-3.9 9.8-2.4 13.1 1.4 23.5-8.3 22-14.2-1.4-5.8-22.9-11.6-31.3-8.9-8.5 2.7-13.5 3.1-25 1.6-11.5-1.5-28.7 3.6-32.6 23-3.8 19.3-4.8 28.6 3.3 40.3 8 11.8 8.7 14.3 13.1 13.5 4.4-0.9 3.8 0.2 5.2-5.1 1.4-5.3 1.4-5.3 1.4-5.3 0 0-7.8-9.3-5-15.2 2.9-6 9.2-2.6 9.2-2.6z"/>
		</g>
		<g id="Layer 27">
		</g>
		<g id="Layer 30">
			<path id="&lt;Path&gt;" class="s20" d="m606.4 516.6c0 0 9.5-19.5 12.8-27.8 3.2-8.2 9.7-15 10.5-7.7 0.7 7.2-12 26.5-17 42.7-5 16.3-7.6 36-7.6 36v-40.9z"/>
		</g>
		<path id="&lt;Path&gt;" class="s16" d="m671.1 484c0 1.1-0.9 1.9-2 1.9-1.1 0-2-0.8-2-1.9 0-1.1 0.9-2 2-2 1.1 0 2 0.9 2 2z"/>
		<g id="Layer 33">
			<path id="&lt;Path&gt;" class="s16" d="m682.8 466.3c0 1.1-0.9 2-2 2-1.1 0-2-0.9-2-2 0-1.1 0.9-2 2-2 1.1 0 2 0.9 2 2z"/>
			<path id="&lt;Path&gt;" class="s16" d="m627.4 500.3c0 1.1-0.9 2-2 2-1.1 0-2-0.9-2-2 0-1.1 0.9-1.9 2-1.9 1.1 0 2 0.8 2 1.9z"/>
			<path id="&lt;Path&gt;" class="s16" d="m667.1 505.3c0 1.1-0.9 2-2 2-1.1 0-2-0.9-2-2 0-1.1 0.9-2 2-2 1.1 0 2 0.9 2 2z"/>
			<path id="&lt;Path&gt;" class="s16" d="m677.2 520.5c0 1.1-0.8 2-1.9 2-1.1 0-2-0.9-2-2 0-1.1 0.9-2 2-2 1.1 0 1.9 0.9 1.9 2z"/>
			<path id="&lt;Path&gt;" class="s16" d="m649.5 494.3c0 1.1-0.9 2-2 2-1 0-1.9-0.9-1.9-2 0-1.1 0.9-2 1.9-2 1.1 0 2 0.9 2 2z"/>
		</g>
		<path id="&lt;Path&gt;" class="s16" d="m696.5 479.1c0 1.1-0.9 2-2 2-1.1 0-2-0.9-2-2 0-1.1 0.9-2 2-2 1.1 0 2 0.9 2 2z"/>
		<path id="&lt;Path&gt;" class="s16" d="m687.7 499.1c0 1.1-0.9 2-2 2-1.1 0-2-0.9-2-2 0-1.1 0.9-2 2-2 1.1 0 2 0.9 2 2z"/>
		<path id="&lt;Path&gt;" class="s16" d="m663.7 457.3c0 1.1-0.9 2-2 2-1 0-1.9-0.9-1.9-2 0-1.1 0.9-2 1.9-2 1.1 0 2 0.9 2 2z"/>
		<path id="&lt;Path&gt;" class="s16" d="m631.7 467.2c0 1.1-0.9 2-2 2-1.1 0-2-0.9-2-2 0-1.1 0.9-2 2-2 1.1 0 2 0.9 2 2z"/>
		<path id="&lt;Path&gt;" class="s16" d="m615.1 484.8c0 1.1-0.9 2-2 2-1 0-1.9-0.9-1.9-2 0-1.1 0.9-2 1.9-2 1.1 0 2 0.9 2 2z"/>
		<g id="&lt;Group&gt;">
			<path id="&lt;Path&gt;" class="s16" d="m595.3 497.1c0 1.1-0.9 2-2 2-1.1 0-2-0.9-2-2 0-1.1 0.9-1.9 2-1.9 1.1 0 2 0.8 2 1.9z"/>
		</g>
		<path id="&lt;Path&gt;" class="s16" d="m590.5 478c0 1.1-0.9 2-2 2-1.1 0-2-0.9-2-2 0-1.1 0.9-2 2-2 1.1 0 2 0.9 2 2z"/>
		<path id="&lt;Path&gt;" class="s16" d="m606.3 463.4c0 1.1-0.9 2-2 2-1.1 0-2-0.9-2-2 0-1.1 0.9-2 2-2 1.1 0 2 0.9 2 2z"/>
		<path id="&lt;Path&gt;" class="s16" d="m598.1 442.9c0 1.1-0.9 2-1.9 2-1.1 0-2-0.9-2-2 0-1 0.9-1.9 2-1.9 1 0 1.9 0.9 1.9 1.9z"/>
		<path id="&lt;Path&gt;" class="s16" d="m619.4 449.4c0 1.1-0.9 2-2 2-1.1 0-2-0.9-2-2 0-1 0.9-1.9 2-1.9 1.1 0 2 0.9 2 1.9z"/>
		<path id="&lt;Path&gt;" class="s16" d="m643.4 451.9c0 1.1-0.9 2-2 2-1.1 0-2-0.9-2-2 0-1 0.9-1.9 2-1.9 1.1 0 2 0.9 2 1.9z"/>
		<path id="&lt;Path&gt;" class="s16" d="m656.5 440.2c0 1.1-0.9 2-2 2-1.1 0-2-0.9-2-2 0-1.1 0.9-2 2-2 1.1 0 2 0.9 2 2z"/>
		<path id="&lt;Path&gt;" class="s16" d="m684.8 442.2c0 1.1-0.9 2-2 2-1.1 0-2-0.9-2-2 0-1.1 0.9-2 2-2 1.1 0 2 0.9 2 2z"/>
		<path id="&lt;Path&gt;" class="s16" d="m699.5 452.7c0 1.1-0.9 2-2 2-1.1 0-2-0.9-2-2 0-1.1 0.9-2 2-2 1.1 0 2 0.9 2 2z"/>
		<path id="&lt;Path&gt;" class="s16" d="m655.5 557.8c0 1.1-0.9 2-2 2-1.1 0-2-0.9-2-2 0-1.1 0.9-2 2-2 1.1 0 2 0.9 2 2z"/>
		<path id="&lt;Path&gt;" class="s16" d="m629.7 553.9c0 1.1-0.9 1.9-2 1.9-1 0-1.9-0.8-1.9-1.9 0-1.1 0.9-2 1.9-2 1.1 0 2 0.9 2 2z"/>
		<path id="&lt;Path&gt;" class="s16" d="m690.9 541.7c0 1.1-0.9 2-2 2-1.1 0-2-0.9-2-2 0-1.1 0.9-2 2-2 1.1 0 2 0.9 2 2z"/>
		<path id="&lt;Path&gt;" class="s16" d="m675.3 565.7c0 1.1-0.9 1.9-2 1.9-1.1 0-2-0.8-2-1.9 0-1.1 0.9-2 2-2 1.1 0 2 0.9 2 2z"/>
		<path id="&lt;Path&gt;" class="s16" d="m611.3 546.2c0 1.1-0.9 2-2 2-1.1 0-2-0.9-2-2 0-1.1 0.9-2 2-2 1.1 0 2 0.9 2 2z"/>
		<path id="&lt;Path&gt;" class="s16" d="m638.5 572.1c0 1.1-0.9 2-2 2-1.1 0-2-0.9-2-2 0-1.1 0.9-2 2-2 1.1 0 2 0.9 2 2z"/>
		<path id="&lt;Path&gt;" class="s16" d="m615.9 570.1c0 1.1-0.9 2-2 2-1.1 0-2-0.9-2-2 0-1.1 0.9-2 2-2 1.1 0 2 0.9 2 2z"/>
		<path id="&lt;Path&gt;" class="s16" d="m658 584.1c0 1.1-0.9 2-2 2-1.1 0-2-0.9-2-2 0-1.1 0.9-2 2-2 1.1 0 2 0.9 2 2z"/>
		<path id="&lt;Path&gt;" class="s16" d="m631.7 596.2c0 1.1-0.9 2-2 2-1.1 0-2-0.9-2-2 0-1.1 0.9-2 2-2 1.1 0 2 0.9 2 2z"/>
		<path id="&lt;Path&gt;" class="s16" d="m681.6 586.7c0 1.1-0.9 2-2 2-1.1 0-2-0.9-2-2 0-1.1 0.9-2 2-2 1.1 0 2 0.9 2 2z"/>
		<path id="&lt;Path&gt;" class="s16" d="m667.7 604.6c0 1.1-0.9 2-2 2-1.1 0-2-0.9-2-2 0-1 0.9-1.9 2-1.9 1.1 0 2 0.9 2 1.9z"/>
		<path id="&lt;Path&gt;" class="s16" d="m646.1 612.2c0 1.1-0.9 2-2 2-1.1 0-2-0.9-2-2 0-1.1 0.9-2 2-2 1.1 0 2 0.9 2 2z"/>
		<path id="&lt;Path&gt;" class="s16" d="m613.9 608.6c0 1.1-0.9 2-2 2-1.1 0-2-0.9-2-2 0-1.1 0.9-2 2-2 1.1 0 2 0.9 2 2z"/>
		<path id="&lt;Path&gt;" class="s16" d="m691.4 601.7c0 1.1-0.9 2-2 2-1 0-1.9-0.9-1.9-2 0-1.1 0.9-2 1.9-2 1.1 0 2 0.9 2 2z"/>
		<path id="&lt;Path&gt;" class="s16" d="m705.9 584.1c0 1.1-0.9 2-2 2-1.1 0-2-0.9-2-2 0-1.1 0.9-2 2-2 1.1 0 2 0.9 2 2z"/>
		<path id="&lt;Path&gt;" class="s16" d="m682.3 614.2c0 1.1-0.8 2-1.9 2-1.1 0-2-0.9-2-2 0-1.1 0.9-2 2-2 1.1 0 1.9 0.9 1.9 2z"/>
		<path id="&lt;Path&gt;" class="s16" d="m609.1 588.7c0 1.1-0.9 2-2 2-1 0-1.9-0.9-1.9-2 0-1.1 0.9-2 1.9-2 1.1 0 2 0.9 2 2z"/>
		<path id="&lt;Path&gt;" class="s16" d="m626.9 623.9c0 1.1-0.9 2-2 2-1.1 0-2-0.9-2-2 0-1 0.9-1.9 2-1.9 1.1 0 2 0.9 2 1.9z"/>
		<path id="&lt;Path&gt;" class="s16" d="m664.5 623.1c0 1.1-0.9 2-2 2-1.1 0-2-0.9-2-2 0-1.1 0.9-2 2-2 1.1 0 2 0.9 2 2z"/>
		<path id="&lt;Path&gt;" class="s16" d="m700.8 619.6c0 1.1-0.9 2-2 2-1.1 0-2-0.9-2-2 0-1.1 0.9-2 2-2 1.1 0 2 0.9 2 2z"/>
		<g id="Layer 34">
			<path id="&lt;Path&gt;" class="s21" d="m626.9 491.4c0 0-6.8 36.1-9.5 53.7-2.7 17.7-5.6 11.9 6.9 43.6 12.4 31.6 12.2 40.8 12.2 40.8l-25.9 1.9c0 0-3.3-9.8-4.6-16.1-1.2-6.2-1.7-8.7-1.7-8.7l0.6-35.4 0.2-13.7 0.9-39.7c0 0 10.1-22.3 11.4-25 1.3-2.7 6.2-15.8 10-14.8 3.7 1 2.2 5.9 1.8 7.2-0.4 1.3-2.3 6.2-2.3 6.2z"/>
			<path id="&lt;Path&gt;" class="s22" d="m612.3 791.1c0 0 17.1 1.5 22.5 1.6 5.2 0.1 14.7-0.5 14.8-0.2h1l0.1 8.6c0 0 0.1 12.8-10.9 9.1-11-3.8-28.2-16.9-28.2-16.9z"/>
		</g>
		<path id="&lt;Path&gt;" class="s16" d="m694.8 565.7c0 1.1-0.9 1.9-2 1.9-1.1 0-1.9-0.8-1.9-1.9 0-1.1 0.8-2 1.9-2 1.1 0 2 0.9 2 2z"/>
		<path id="&lt;Path&gt;" class="s16" d="m708.3 548c0 1.1-0.9 2-2 2-1.1 0-2-0.9-2-2 0-1.1 0.9-2 2-2 1.1 0 2 0.9 2 2z"/>
		<path id="&lt;Path&gt;" class="s16" d="m706.1 508.5c0 1.1-0.8 2-1.9 2-1.1 0-2-0.9-2-2 0-1.1 0.9-2 2-2 1.1 0 1.9 0.9 1.9 2z"/>
		<path id="&lt;Path&gt;" class="s23" d="m779.8 560.1l87 18.1v146.9l-87-27.2z"/>
	</g>
	<g id="Layer 16">
		<g id="Layer 40">
			<path id="&lt;Path&gt;" class="s24" d="m816.2 531.4c-1.1-3.7-2.8-6-2.8-6l-0.5-0.1c0 0-2 1.2-2.8 3.4-0.7 2.2-1.8 10.1-4.4 10.8-2.6 0.6-2.8-0.3-2.8-0.3l2.8-11.1c0 0-0.8-0.8-2.6 2-1.9 2.8-3.3 9.2-6.3 10.8-3.1 1.7-4.4 1.7-2.6-1.5 1.9-3.3 3.1-7.4 3.1-7.4l1.2-3"/>
			<path id="&lt;Path&gt;" class="s24" d="m821.4 544.5c0.1 4.1 2.5-13-0.5-12.4-2.9 0.5-12.5 3.2-11.7-5.7"/>
			<path id="&lt;Path&gt;" class="s24" d=""/>
			<path id="&lt;Path&gt;" class="s25" d="m956.3 347.2c0 0 18.5-29.9 35.8-38 0.5-0.3 20.5-10.6 21-10.9 17.7-8.1 46 8.3 56.1 11q0.9 0.3 1.8 0.7c2.1 1 3.6 2.6 4.3 5 6.4 23 0.6 26 8.8 41.3 8.2 15.2 28.7 19.7 24.7 35.6-3.9 15.8-15.2 26.9-8.4 42.1 6.8 15.1 18.6 27.5 16.1 37.5-2.4 10-9.9 26.8-9.9 26.8l-2.5 35c0 0 21.7 35.1 18.5 48.1-3.2 12.9-1.3 19.5-10.8 19.8-9.5 0.3-24.7-6.8-24.7-6.8 0 0-1-4.9-0.6 19.1 0.4 24 8.3 43.5 0.3 44.4-8 0.9-10.3-1.6-10.3-1.6l-11.8 98.6c0 0 10 22.8 10 47.6 0.1 24.9-10.4 85.1-11.7 92.2-1.2 7-3 24.3-0.6 26.7 2.5 2.4 10.8 13.2 1.8 23.3-9.1 10.1-10.8 24.8-21.4 32.9-10.6 8.2-92 47.2-92 47.2l-22.9-25.9c0 0 79.6-35.5 88.4-45.3 8.7-9.9 13.3-18.3 13.3-18.3l-49.3 35.2-18.8-9.5c0 0 61.1-42.8 67.1-50.1 6-7.3 6-7.3 6-7.3l-1.4-47.1c0 0-29.9-45.7-38.8-66.5-8.9-20.9-13.9-39.5-14.1-51.5-0.2-11.9-6.2-77.7-6.2-77.7l-11.7-1.4c0 0 9.7-46.6 12.1-73.7 2.4-27.1 3-34.9 3-34.9 0 0-7 0.3-9.2 0.9-2.3 0.7-11.3 4.4-14.3 3.8-3.1-0.5-6.6-2.9-6.6-2.9l-11.6 2.9c0 0-3.4-4.5 1.9-6.3 5.4-1.8 16.7-4.1 16.7-4.1l-18.9 2.6c0 0-4.1-5.4 4.2-7.3 8.2-1.8 20.6-2.9 25.9-7.9 5.4-4.9 5.7-11.8 5.7-11.8 0 0-11.4-4.7-13.6-7.6-2.2-2.9-4.6-5-1.9-6.2 2.7-1.3 8 2.3 11.8 3.9 3.9 1.5 6.8 1.1 6.8 1.1 0 0-9-5.2-8.8-10.4 0.3-5.3 0-18.6 0-18.6 0 0-18.7 14.7-25.8 16.7-7.1 2-52.8 8.1-52.8 8.1l47.1-38.6"/>
		</g>
		<g id="&lt;Group&gt;">
			<path id="&lt;Path&gt;" class="s26" d="m907.1 353.5c-1.1 3.8-2.1 7.6-2.8 11.5-0.6 3.8-1.1 7.6-0.9 11.2 0.1 1.8 0.3 3.6 0.8 5.2 0.5 1.7 1.1 3 2.1 4.6 1.9 3 4.4 5.9 6.9 9 2.4 3.2 5 6.5 6.8 10.4 0.8 2 1.6 4.1 1.7 6.4 0.2 2.2-0.3 4.4-1.1 6.4q-0.2 0.7-0.6 1.4-0.4 0.8-0.8 1.4c-0.5 0.9-1.1 1.7-1.6 2.6q-1.7 2.5-3.5 5l-3.6 4.8c-1.1 1.6-2.2 3.2-3 4.8-0.7 1.6-0.9 3.1-0.7 4.6 0.1 0.8 0.3 1.6 0.6 2.4l0.4 1.3 0.5 1.5c1.4 3.7 2.6 7.7 3.4 11.8 0.8 4.1 1.2 8.5 0.6 13-0.6 4.4-2.3 8.9-5.1 12.6q-1.1 1.4-2.3 2.6c-0.8 0.8-1.6 1.4-2.3 2.1-0.8 0.7-1.7 1.4-2.5 2.1-0.8 0.6-1.7 1.2-2.5 1.8-1.8 1.2-3.5 2.4-5.4 3.3-1.9 1-3.8 1.9-5.8 2.6-3.9 1.5-7.8 2.5-11.5 3.6-1.8 0.6-3.7 1.2-5.6 1.9q-2.8 1-5.7 1.9l-0.3-0.7q2.5-1.7 5-3.3c1.7-1 3.4-2.1 5.2-3.1 1.8-1 3.7-1.8 5.5-2.7q2.6-1.3 5.2-2.6c1.6-0.9 3.3-1.9 4.8-2.9 1.6-1 3.1-2.2 4.5-3.4 1.4-1.2 2.8-2.4 4.1-3.7 0.7-0.7 1.4-1.4 2-2q0.9-1 1.6-2c2-2.7 3.2-5.8 3.9-9.2 0.6-3.4 0.5-7.1 0.1-10.8-0.5-3.8-1.4-7.5-2.3-11.4l-0.3-1.4-0.2-0.8-0.1-0.8q-0.4-1.7-0.3-3.5c0-1.2 0.2-2.4 0.6-3.6 0.4-1.1 0.9-2.2 1.5-3.1 1.3-1.9 2.8-3.4 4.1-4.8 1.4-1.5 2.7-2.9 4-4.4q1.9-2.3 3.6-4.7c1.1-1.6 2.2-3.2 2.7-5 0.7-1.7 0.8-3.5 0.4-5.3-0.4-1.7-1.2-3.3-2.2-4.8-1.1-1.5-2.3-2.9-3.7-4.3q-2-2.1-4.1-4.1c-2.8-2.9-5.7-5.9-7.9-9.7-0.6-0.9-1.1-1.9-1.6-3q-0.3-0.9-0.6-1.7c-0.1-0.6-0.3-1.1-0.4-1.7-0.5-2.2-0.6-4.4-0.5-6.6 0.2-4.3 1.3-8.4 2.8-12.3 1.5-3.8 3.3-7.4 5.7-10.8z"/>
		</g>
		<g id="Layer 19">
			<path id="&lt;Path&gt;" class="s27" d="m899 603.9c0 0-7 42.2-4.6 74.5 2.5 32.3 8.1 115.3 8.3 118.1 0.2 2.7 3.3 10.9 3.3 10.9 0 0 3.7 13.7 19.7 40.3 15.9 26.6 40 67.6 40 67.6 0 0 3.3 11.5-3.1 20.3-6.3 8.8-9.3 8.4-21.5 21.4-12.2 13.1-25.1 16.8-18.9 20 6.1 3.2 6.9 4.2 19.9 1.3 13-2.9 27.4-22 37.5-23 10.2-0.9 16.2-3.6 16.1-12.1-0.1-8.5-12.7-30.3-15.2-43.3-2.4-13.1-26.5-71.3-31.3-80.1-4.7-8.8-6-17.2-6-17.2l28.7-203.7z"/>
		</g>
		<g id="Layer 12">
			<path id="&lt;Path&gt;" class="s12" d="m977.4 595.1c0 0 20 26.2 21.8 55.8 1.9 29.5-14.1 142.3-14.1 142.3 0 0 15.5 44.2 9.1 79.2-6.3 35-13.6 76.8-13.6 76.8l2.3 10.5c0 0 8.3 5.9 5.5 15.9-2.8 10-16 18.7-19.2 25.5-3.2 6.8-2.2 20.5-24.5 25.5-22.3 5-40.1 12.7-33.7 0 6.4-12.8 16.4-28.7 16.4-28.7 0 0 24.7-10 27.1-43.7 2.4-33.6-3.5-90.5-3.5-90.5 0 0-10.4-45.5-10-60.9 0.5-15.5-3.2-35.5-3.2-35.5l-8.1-100.1c0 0 6.5-38.2 24.8-54.1 18.4-15.9 22.9-18 22.9-18z"/>
		</g>
		<g id="Layer 35">
			<path id="&lt;Path&gt;" class="s28" d="m894.3 696.8l0.8 10.1c0 0 10.2 7.9 19.3 9.5 9.2 1.7 11.4 2.2 14.5 0.7 3.2-1.5 3.3-0.7 3.3-0.7 0 0 0.2 3.5 8.6 4.4 8.3 0.8 14.5-2.7 27.8-5.2 13.3-2.5 18.3-4.2 22.7-4.7 4.3-0.5 4.3-0.5 4.3-0.5l1.3-15.8-102.8-3.2z"/>
		</g>
		<g id="Layer 18">
			<path id="&lt;Path&gt;" class="s29" d="m926 340.6c0 0 18.4-11 24.1-10.7 5.7 0.4 19.5-0.2 32.3 9.3 12.7 9.5 20 18.1 19.9 27.6-0.2 9.5-0.5 17.2 2.2 27.7 2.8 10.6 22.7 20.4 24.3 29.9 1.5 9.5-0.7 14.6-3.5 21.5-2.6 6.6-4.5 11.8-4.7 22.9-0.2 11 8.6 20.4 10 22.6 1.4 2.2 9 10.2 5.5 23.1-3.4 13-10 23-14 31.6-3.9 8.7-2.5 20.3 2.5 25.4 5 5.2 14.3 23.2 13.3 27.5-1.1 4.3 18.1 37.5-11.6 38.7-29.7 1.2-56.1-37-56.1-40.8 0-3.8-9-172.5-9-172.5l-44.2-65.3-5.5 18.7c0 0-10.8-3.3-10.8-9.5 0-6.2 2.5-13.7 7.3-17.6 4.8-4 18-10.1 18-10.1z"/>
			<path id="&lt;Path&gt;" class="s10" d="m917 359.1c0 0-5.5 9.3-5.5 18.7 0 9.3 0.3 13.1-3.2 17.2-3.4 4.2-6.5 5.9-2.7 9 3.8 3.1 2 8 4.8 9.3 2.8 1.4 2.8 1.4 2.8 1.4l0.6-0.4c0 0-2.4-0.8-3.4 0.4-1 1.3-0.7 2.4 0 4.4 0.7 2 0 7.1 0 8.9 0 1.7 0.8 3.8 6.6 4.6 5.7 0.8 5.2 0.8 13.6 0 8.4-0.8 16.3-1.3 23.8-3.8 7.5-2.6 6.1-8 6.3-10.3 0.3-2.3-2.3-10.5-2.3-10.5 0 0 3.9-3.4 4.2-8.5 0.2-5-1-8.6-4.1-9-3.1-0.3-7.2 4.4-7.2 4.4 0 0-12.2-11.3-15.8-15.1-3.6-3.8-18.5-20.7-18.5-20.7z"/>
		</g>
		<g id="Layer 38">
			<path id="&lt;Path&gt;" class="s30" d="m897.9 589c0 0-2.7 44.7-8.6 74-5.9 29.3-6.4 31.7-6.4 31.7 0 0-4 3.1 4.6 4.3 8.7 1.1 4.9-0.9 20.7-1.2 15.8-0.3 17.2-0.1 24.1 1.5 6.9 1.7 28.2 5.3 36.9 1 8.7-4.3 11.8-4.7 24.5-3.7 12.7 1 12.7 1 13.5-0.5 0.8-1.5 0-16 0-27.6 0-11.7-0.7-50-6-64.9-5.3-14.8-5.3-14.8-5.3-14.8l-71.9-12.2h-24.5z"/>
		</g>
		<g id="Layer 36">
			<path id="&lt;Path&gt;" class="s3" d="m910.5 583.3c0 0 19.3 10.2 32.3 14.2 13 3.9 13.9 4.3 31.8 4.8 17.9 0.5 19.6-1.8 21.9-4 2.3-2.1 0.8-6.8 0.8-6.8l-82.8-10.8z"/>
		</g>
		<g id="Layer 37">
			<path id="&lt;Path&gt;" class="s3" d="m901.7 547.7c0 0 19.3 10.2 32.3 14.2 13 3.9 13.9 4.3 31.8 4.8 17.9 0.4 19.6-1.9 21.9-4 2.3-2.1 0.8-6.8 0.8-6.8l-82.8-10.8z"/>
		</g>
		<g id="Layer 11">
			<path id="&lt;Path&gt;" class="s31" d="m703.8 570.7c0 0-0.1-0.2 0-0.6 0.1-0.3 0.6-0.4 0.6-0.4 0 0 3.1-1.7 6.7-4.6 3.6-2.9 5.9-7.3 5.9-7.3l9.1-3.1 10.5 4.2c0 0-2 1.7-2.8 2.6-0.8 0.9-1.7 3.9-1.7 3.9 0 0-1.9 7.4-3.6 8.6-1.7 1.1-2.9-0.3-2.9-0.3l2.9-11.1c0 0-2 1.1-2.7 2-0.8 0.8-2.5 5.4-3.3 7.1-0.7 1.7-3.9 5.3-5.6 4.9-1.7-0.3-0.4-1.6-0.4-1.6l4.7-11.5-2.2 1.4c0 0-3.2 3-6.1 5-1 0.8-2.1 1.4-2.9 1.7-3.2 1.1-6.2-0.7-6.2-0.7"/>
			<path id="&lt;Path&gt;" class="s32" d="m960.7 417.9c-0.4 5 4.4 14.6 4.4 14.6 0 0 11.3 16.6 27.3 15.3 16.9-1.4 19.4 17.5 25.7 30.8 6.4 13.2 8.7 59 6.4 87.9-2.3 28.9-10.9 24.3-39.6 27.4-28.6 3.1-21.6-1-36.8-1-15.3 0-18.4-5.7-28.2-7.5-9.8-1.8-18.9 2.5-24.4 4.1-5.4 1.6-6.8 0.2-9 1.1-2.3 0.9-9.8 2.3-12.1 3.2-2.3 0.9-6.6-3-6.6-3 0 0-2 0-4.5 0.7-2.5 0.7-7.1 2.3-7.1 2.3 0 0-1.8-2.3 0-5 1.8-2.7 18.7-5.5 18.7-5.5h-4.1c0 0-11 1.9-13.7 2.6-2.7 0.7-2.5-1.2-2.3-3.2 0.3-2.1 3.5-4.1 11.8-5.5 8.4-1.4 15.1-4.3 21.7-8.4 6.6-4.1 3.4-9.8 3.4-9.8 0 0-3.4 0.5-10.7-5.2-7.3-5.7-4.8-6.4-4.8-8.7 0-2.2 4.8-1.8 10.3 2.8 5.4 4.5 9.3 2.2 9.3 2.2 0 0-6.8-9.3-8.9-14.1-2-4.7 0.2-15.4 0.2-15.4 0 0-7.9 4.3-18.4 12.2-10.4 8-16.1 6.6-26.4 8.9-10.2 2.3-54.5 6.2-68.9 7.1-14.3 0.9-15.2 1.6-15.2 1.6 0 0-0.5 2.5-4.1 7.5-3.6 5-7.1 5-9.1 13.2-2 8.1 0 14.1 0 14.1 0 0-0.7 1.5-5 0-4.3-1.6-2.7-7.3-2.7-8 0-0.7 4.7-11.4-1.2-17.3-5.9-5.9-19.8-0.7-25.7 0-5.9 0.7-9.7 0.5-11.6-1.4-1.8-1.8 2.1-2.9 8.7-2.9 6.6 0 17.7-5.7 26.4-9.8 8.6-4.1 16.3-7.7 16.3-7.7 0 0 54.4-12.8 83.5-23.7 29.1-10.9 29.6-15.7 47.7-35.2 18.2-19.6 28.5-26.2 28.5-26.2l18.2-3.8c0 0-0.9-14.4-1.6-17.1"/>
			<path id="&lt;Path&gt;" class="s33" d=""/>
			<path id="&lt;Path&gt;" class="s34" d=""/>
			<path id="&lt;Path&gt;" class="s35" d="m926.6 432.9c0 0 22.8-6.7 26.6-11 3.8-4.2 5.2-13.9 5.2-13.9l2.7 8.9c0 0-0.9 10.2-7.7 15.4-6.8 5.2-17.3 12.5-20.2 10.8-2.8-1.6-6.6-10.2-6.6-10.2z"/>
			<path id="&lt;Path&gt;" class="s35" d="m917 358.1c0 0 5.4 20.4 9.6 26.7 4.3 6.3 8.3 7.8 14.1 9.2 5.8 1.3 10.6-0.1 10.6-0.1l-22.5-20.9z"/>
			<path id="&lt;Path&gt;" class="s36" d=""/>
		</g>
		<path id="&lt;Path&gt;" class="s30" d="m983.4 447.3c0 0-7.4 29-6.2 40.5 1.2 11.5 7.9 13 7.9 13l5.1 46.4 1.3 13.6c0 0-3.4 6.3-31.9 4.9-28.5-1.5-37.9 1.8-42.1-3-4.3-4.9-7.9-8.2-13.4-10.6-5.4-2.5-9.2-2-9.2-2 0 0-17.8-10.1-2.9-43.5 14.9-33.4 18.6-53.9 18.6-53.9l16.6-3.5c0 0 4.8 5.5 15.7 5.5 11 0 32-12.7 32-12.7z"/>
		<g id="Layer 14">
			<path id="&lt;Path&gt;" class="s3" d="m906.6 552.9c0 0 7.3-8.8 19-7.8 11.8 1 17.2 7 34.5 6 17.3-1 23.3-4.6 23.3-4.6 0 0-15.4 15.5-25.4 16.6-10 1.2-31.6 7.4-41.5-1.4-9.9-8.8-9.9-8.8-9.9-8.8z"/>
		</g>
	</g>
	<g id="Layer 42">
		<g id="Layer 41">
			<path id="&lt;Path&gt;" class="s37" d="m557.2 442.9c0 0 9.2 14.5 25 14.4 15.8 0 27-7.7 27-7.7 0 0-25.5-4.8-29.5-19.3-4-14.4-4-14.4-4-14.4l-20.5 23z"/>
			<path id="&lt;Path&gt;" class="s37" d="m609.8 376.3c0 47.3-38.3 85.6-85.6 85.6-47.2 0-85.6-38.3-85.6-85.6 0-47.2 38.4-85.5 85.6-85.5 47.3 0 85.6 38.3 85.6 85.5z"/>
			<path id="&lt;Path&gt;" class="s38" d="m1086.1 459.4c0 0-9.2 14.5-25 14.5-15.8-0.1-26.9-7.8-26.9-7.8 0 0 25.4-4.8 29.4-19.2 4-14.4 4-14.4 4-14.4l20.5 22.9z"/>
			<path id="&lt;Path&gt;" class="s38" d="m1033.6 392.9c0 47.2 38.3 85.5 85.5 85.5 47.3 0 85.6-38.3 85.6-85.5 0-47.3-38.3-85.6-85.6-85.6-47.2 0-85.5 38.3-85.5 85.6z"/>
		</g>
	</g>
	<g id="Layer 9">
		<path id="&lt;Path&gt;" class="s39" d="m685.8 567.8l133.7 27.9v225.6l-133.7-41.7z"/>
	</g>
</svg>